<svg xmlns="http://www.w3.org/2000/svg" viewBox="0 0 71.93 41.77"><title>cloudy-day</title><g id="Layer_2" data-name="Layer 2"><g id="Layer_1-2" data-name="Layer 1"><path d="M53.28,41.77H8.44a8.71,8.71,0,0,1-8-6.06A13.49,13.49,0,0,1,11.63,18.77a13.44,13.44,0,0,1,5.24.34,17.48,17.48,0,0,1,15.21-8.89c8.89,0,16.06,5.67,17.48,13.8,7.92-.69,12.19,1.54,13.07,6.82.52,3.17-.08,5.87-1.73,7.81A9.69,9.69,0,0,1,53.28,41.77ZM13.4,20.37a11.42,11.42,0,0,0-1.55.1A11.82,11.82,0,0,0,2.08,35.33a7.07,7.07,0,0,0,6.36,4.84H53.28a8.13,8.13,0,0,0,6.36-2.53c1.34-1.59,1.8-3.77,1.35-6.47s-2.14-6.28-11.42-5.43A1.53,1.53,0,0,1,48,24.48c-1.24-7.39-7.76-12.55-15.87-12.55A16,16,0,0,0,18.24,20a1.61,1.61,0,0,1-1.8.75A11.64,11.64,0,0,0,13.4,20.37Z"/><path d="M21.41,23.41a.82.82,0,0,1-.69-.37c-1-1.44-4.82-2.42-7-2.7a.82.82,0,0,1-.71-.92.81.81,0,0,1,.92-.72c.66.08,6.52.88,8.21,3.43a.82.82,0,0,1-.23,1.14A.78.78,0,0,1,21.41,23.41Z"/><path d="M43.51,28a.82.82,0,0,1-.66-.33A.84.84,0,0,1,43,26.52a11.87,11.87,0,0,1,6.6-2.46.83.83,0,1,1,0,1.65A10.38,10.38,0,0,0,44,27.85.83.83,0,0,1,43.51,28Z"/><path d="M3.88,34.14a.83.83,0,0,1-.83-.82c0-7.24,4-11.56,10.74-11.56a.83.83,0,1,1,0,1.65c-7.9,0-9.08,6.21-9.08,9.91A.83.83,0,0,1,3.88,34.14Z"/><path d="M45.8,30.31a.81.81,0,0,1-.66-.33.83.83,0,0,1,.16-1.16,8.46,8.46,0,0,1,6.8-1.67.82.82,0,0,1-.4,1.6,6.89,6.89,0,0,0-5.4,1.39A.78.78,0,0,1,45.8,30.31Z"/><path d="M59.22,27a.83.83,0,0,1-.59-1.41A8.52,8.52,0,0,0,61,17.69a8.66,8.66,0,0,0-10.34-6.47,8.54,8.54,0,0,0-5.84,4.51.84.84,0,0,1-1.12.37A.82.82,0,0,1,43.29,15a10.18,10.18,0,0,1,7-5.39,10.33,10.33,0,0,1,12.31,7.72,10.13,10.13,0,0,1-2.76,9.45A.82.82,0,0,1,59.22,27Z"/><path d="M67.8,29.72a.84.84,0,0,1-.5-.17L62.51,25.9a.83.83,0,1,1,1-1.32l4.79,3.65a.84.84,0,0,1,.16,1.16A.82.82,0,0,1,67.8,29.72Z"/><path d="M43.3,11.5a.86.86,0,0,1-.5-.17L38,7.68a.83.83,0,0,1-.15-1.16A.82.82,0,0,1,39,6.36L43.81,10A.83.83,0,0,1,44,11.17.81.81,0,0,1,43.3,11.5Z"/><path d="M51.72,7.9a.83.83,0,0,1-.83-.78L50.55.87A.83.83,0,0,1,51.33,0a.82.82,0,0,1,.87.78L52.54,7a.83.83,0,0,1-.78.87Z"/><path d="M61.51,10.48A.81.81,0,0,1,61,10.3a.83.83,0,0,1-.13-1.17l3.9-4.88a.83.83,0,0,1,1.17-.13.82.82,0,0,1,.13,1.16l-3.91,4.89A.83.83,0,0,1,61.51,10.48Z"/><path d="M64.85,18.92a.82.82,0,0,1-.82-.78.83.83,0,0,1,.78-.88l6.24-.34a.83.83,0,0,1,.87.78.81.81,0,0,1-.78.87l-6.24.35Z"/></g></g></svg>