<svg xmlns="http://www.w3.org/2000/svg" viewBox="0 0 67.56 67.56"><title>clean-day</title><g id="Layer_2" data-name="Layer 2"><g id="Layer_1-2" data-name="Layer 1"><path d="M33.78,13.07A20.71,20.71,0,1,0,54.49,33.78,20.73,20.73,0,0,0,33.78,13.07Zm0,39.76a19.06,19.06,0,1,1,19-19A19.07,19.07,0,0,1,33.78,52.83Zm.81-52V10a.82.82,0,0,1-.78.84.8.8,0,0,1-.82-.8V.8a.8.8,0,0,1,.82-.8A.83.83,0,0,1,34.59.84Zm0,56.67v9.21a.83.83,0,0,1-.78.84.8.8,0,0,1-.82-.8V57.54a.82.82,0,0,1,.78-.83A.8.8,0,0,1,34.59,57.51ZM12.49,11.32l5.21,5.21a.83.83,0,0,1,0,1.17.83.83,0,0,1-1.17,0l-5.21-5.21a.83.83,0,0,1,1.17-1.17ZM55.65,56.48a.86.86,0,0,1-.59-.24L49.86,51A.83.83,0,0,1,51,49.86l5.21,5.2a.85.85,0,0,1,0,1.18A.86.86,0,0,1,55.65,56.48Zm-44.33-.24a.85.85,0,0,1,0-1.18l5.21-5.2a.82.82,0,0,1,1.17,0,.83.83,0,0,1,0,1.17l-5.21,5.21a.82.82,0,0,1-.58.24A.84.84,0,0,1,11.32,56.24ZM56.24,11.32a.83.83,0,0,1,0,1.17L51,17.7a.83.83,0,0,1-1.17,0,.82.82,0,0,1,0-1.17l5.2-5.21A.85.85,0,0,1,56.24,11.32ZM.84,32.94H10a.82.82,0,0,1,.84.78.8.8,0,0,1-.8.82H.8a.8.8,0,0,1-.8-.82A.83.83,0,0,1,.84,32.94Zm65.88,1.6H57.54a.82.82,0,0,1-.83-.78.8.8,0,0,1,.8-.82h9.25a.8.8,0,0,1,.8.82A.83.83,0,0,1,66.72,34.54ZM31.39,17.09a.83.83,0,0,1-.71.94c-6.91,1-10.62,7.52-11.89,10.3a.83.83,0,0,1-.75.48.85.85,0,0,1-.35-.08.84.84,0,0,1-.41-1.1C20.21,21.25,25,17.15,30.45,16.39A.83.83,0,0,1,31.39,17.09Z"/></g></g></svg>