<svg xmlns="http://www.w3.org/2000/svg" viewBox="0 0 69.59 39.72"><title>cloudy-night</title><g id="Layer_2" data-name="Layer 2"><g id="Layer_1-2" data-name="Layer 1"><path d="M57.68,39.72H9.07a9.36,9.36,0,0,1-8.55-6.5A14.51,14.51,0,0,1,12.54,15a14.43,14.43,0,0,1,5.66.37A19,19,0,0,1,34.7,5.75c9.62,0,17.37,6.13,18.89,14.92,8.57-.76,13.2,1.63,14.15,7.32.56,3.39-.08,6.28-1.85,8.37A10.45,10.45,0,0,1,57.68,39.72ZM14.46,16.58a13.86,13.86,0,0,0-1.7.11,13,13,0,0,0-11,11.07,13.32,13.32,0,0,0,.35,5.08,7.74,7.74,0,0,0,7,5.28H57.68a8.86,8.86,0,0,0,6.95-2.77c1.46-1.73,2-4.1,1.47-7s-2.33-6.85-12.45-5.93A1.57,1.57,0,0,1,52,21.08c-1.35-8-8.45-13.62-17.27-13.62a17.39,17.39,0,0,0-15.06,8.77,1.64,1.64,0,0,1-1.87.78A12.85,12.85,0,0,0,14.46,16.58Z"/><path d="M23.14,19.89a.84.84,0,0,1-.7-.37c-1.05-1.58-5.26-2.65-7.67-2.95A.83.83,0,1,1,15,14.92c.71.09,7,1,8.84,3.68a.83.83,0,0,1-.23,1.15A.85.85,0,0,1,23.14,19.89Z"/><path d="M47.09,24.86a.84.84,0,0,1-.66-.33.83.83,0,0,1,.16-1.16,12.81,12.81,0,0,1,7.11-2.66.83.83,0,0,1,0,1.66,11.41,11.41,0,0,0-6.11,2.32A.84.84,0,0,1,47.09,24.86Z"/><path d="M4.13,31.49a.84.84,0,0,1-.83-.83c0-7.79,4.33-12.43,11.57-12.43a.83.83,0,1,1,0,1.66C8.57,19.89,5,23.81,5,30.66A.83.83,0,0,1,4.13,31.49Z"/><path d="M49.57,27.34a.81.81,0,0,1-.66-.33.83.83,0,0,1,.16-1.16,9.16,9.16,0,0,1,7.31-1.8.83.83,0,0,1-.4,1.61,7.49,7.49,0,0,0-5.91,1.52A.85.85,0,0,1,49.57,27.34Z"/><path d="M63.84,24a.84.84,0,0,1-.66-.33.83.83,0,0,1,.15-1.16A11.69,11.69,0,0,0,67.81,15a10.89,10.89,0,0,1-2.76,1.13,9.38,9.38,0,0,1-7.15-1A9.58,9.58,0,0,1,54.68,1.76,12.43,12.43,0,0,0,53.35,2a11.45,11.45,0,0,0-8,7.44.84.84,0,0,1-.79.59.83.83,0,0,1-.83-.83.84.84,0,0,1,0-.27A13.11,13.11,0,0,1,52.94.41,13.38,13.38,0,0,1,56.48,0a.84.84,0,0,1,.75.51.83.83,0,0,1-.17.89,7.85,7.85,0,0,0-1.94,7.43,7.82,7.82,0,0,0,3.62,4.84,7.73,7.73,0,0,0,5.9.84,8.33,8.33,0,0,0,3.56-1.85.82.82,0,0,1,.89-.16.8.8,0,0,1,.5.75,13.29,13.29,0,0,1-5.25,10.53A.86.86,0,0,1,63.84,24Z"/></g></g></svg>