<svg xmlns="http://www.w3.org/2000/svg" viewBox="0 0 53 53"><title>covid</title><g id="Layer_2" data-name="Layer 2"><g id="Layer_1-2" data-name="Layer 1"><path d="M46.43,41.49a3.72,3.72,0,0,1-.81-.09A.73.73,0,0,1,46,40a2,2,0,0,0,2.44-1.43,2,2,0,0,0-2.59-2.49,2,2,0,0,1-1.59-.15l-2.31-1.34a.71.71,0,0,1-.29-.93,16.52,16.52,0,0,0,1.54-5.78.72.72,0,0,1,.72-.67h2.67a2,2,0,0,1,1.47.67,2,2,0,0,0,1.5.67,2,2,0,0,0,1.6-.77A2.06,2.06,0,0,0,51.5,26,2,2,0,0,0,48,25.14a2,2,0,0,1-1.46.66H43.88a.72.72,0,0,1-.72-.67,16.46,16.46,0,0,0-1.54-5.78.73.73,0,0,1,.29-.94l2.31-1.33a2,2,0,0,1,1.6-.15,2,2,0,0,0,1.63-.17,2,2,0,0,0,1-1.47,2,2,0,0,0-.55-1.72,2,2,0,0,0-3.45,1,2,2,0,0,1-.93,1.3L41.2,17.2a.71.71,0,0,1-1-.21A16.75,16.75,0,0,0,36,12.75a.71.71,0,0,1-.21-.95l1.33-2.32a2,2,0,0,1,1.31-.93,2,2,0,0,0,1.34-1A2.23,2.23,0,0,0,40,6.88a.71.71,0,0,1,.82-.61.72.72,0,0,1,.6.82A3.54,3.54,0,0,1,41,8.31,3.47,3.47,0,0,1,38.75,10a.55.55,0,0,0-.37.25l-1,1.74a18.76,18.76,0,0,1,3.67,3.67l1.74-1a.47.47,0,0,0,.24-.35,3.49,3.49,0,1,1,2.34,4,.55.55,0,0,0-.43,0l-1.74,1a18,18,0,0,1,1.33,5h2a.51.51,0,0,0,.39-.18,3.47,3.47,0,0,1,6,1.5,3.51,3.51,0,0,1-.65,3,3.48,3.48,0,0,1-5.3.18.54.54,0,0,0-.4-.19h-2a18.1,18.1,0,0,1-1.33,5l1.74,1a.51.51,0,0,0,.42,0A3.47,3.47,0,0,1,49.78,39,3.52,3.52,0,0,1,46.43,41.49Z"/><path d="M26.5,53a3.48,3.48,0,0,1-2.34-6.06.54.54,0,0,0,.19-.39v-2a17.78,17.78,0,0,1-5-1.34l-1,1.75a.51.51,0,0,0,0,.42A3.48,3.48,0,0,1,14,49.78a3.49,3.49,0,0,1-2.5-3.64.72.72,0,1,1,1.44.12,2,2,0,0,0,1.48,2.14,2,2,0,0,0,2-.52,2,2,0,0,0,.5-2.07,2,2,0,0,1,.15-1.59l1.34-2.31a.7.7,0,0,1,.93-.29,16.52,16.52,0,0,0,5.78,1.54.72.72,0,0,1,.67.72v2.67A2,2,0,0,1,25.13,48a2,2,0,0,0-.67,1.5,2,2,0,0,0,.77,1.6A2.06,2.06,0,0,0,27,51.5,2,2,0,0,0,27.86,48a2,2,0,0,1-.66-1.46V43.88a.72.72,0,0,1,.67-.72,16.52,16.52,0,0,0,5.78-1.54.72.72,0,0,1,.94.29l1.33,2.31a2,2,0,0,1,.15,1.6,2,2,0,0,0,.17,1.63,2,2,0,0,0,3.19.45,2,2,0,0,0-1-3.45,2,2,0,0,1-1.3-.93L35.8,41.2a.71.71,0,0,1,.21-1A16.75,16.75,0,0,0,40.25,36a.71.71,0,0,1,1-.21l2.32,1.33a1.94,1.94,0,0,1,.81.93.72.72,0,1,1-1.33.57.43.43,0,0,0-.21-.24l-1.74-1A18.44,18.44,0,0,1,37.38,41l1,1.75a.5.5,0,0,0,.35.24,3.49,3.49,0,1,1-4,2.34.53.53,0,0,0,0-.43l-1-1.75a17.69,17.69,0,0,1-5,1.34v2a.53.53,0,0,0,.18.39,3.47,3.47,0,0,1-1.5,6A3.31,3.31,0,0,1,26.5,53Z"/><path d="M13.89,44.63a.72.72,0,0,1-.28-1.39,3,3,0,0,1,.64-.2.51.51,0,0,0,.36-.25l1-1.75A18.44,18.44,0,0,1,12,37.38l-1.74,1a.48.48,0,0,0-.24.34,3.49,3.49,0,1,1-2.34-4,.55.55,0,0,0,.43,0l1.74-1a18.1,18.1,0,0,1-1.33-5h-2a.51.51,0,0,0-.39.18,3.42,3.42,0,0,1-3.46,1A3.43,3.43,0,0,1,.1,27.33a3.47,3.47,0,0,1,1.48-3.75.72.72,0,0,1,.79,1.21A2.05,2.05,0,0,0,1.5,27,2,2,0,0,0,5,27.86a2,2,0,0,1,1.46-.66H9.12a.72.72,0,0,1,.72.67,16.74,16.74,0,0,0,1.54,5.78.7.7,0,0,1-.29.93L8.78,35.92a2,2,0,0,1-1.6.15,2,2,0,0,0-1.63.17,2,2,0,1,0,3,2.2,2,2,0,0,1,.93-1.31L11.8,35.8a.71.71,0,0,1,.95.21A16.75,16.75,0,0,0,17,40.25a.71.71,0,0,1,.21,1l-1.33,2.32a2,2,0,0,1-1.31.93,2.4,2.4,0,0,0-.38.12A.75.75,0,0,1,13.89,44.63Z"/><path d="M9.12,25.8H6.45A2,2,0,0,1,5,25.13L4.8,25a.72.72,0,0,1,.94-1.1c.11.1.22.2.32.31a.54.54,0,0,0,.39.19h2a18,18,0,0,1,1.33-5l-1.74-1a.51.51,0,0,0-.42,0A3.48,3.48,0,0,1,3.22,14a3.49,3.49,0,0,1,5.09-2A3.44,3.44,0,0,1,10,14.25a.51.51,0,0,0,.25.36l1.74,1A18.76,18.76,0,0,1,15.62,12l-1-1.74a.46.46,0,0,0-.34-.24,3.48,3.48,0,0,1-1.69-5.92A3.48,3.48,0,0,1,18.3,7.63a.53.53,0,0,0,0,.43l1,1.74a18.1,18.1,0,0,1,5-1.33v-2a.51.51,0,0,0-.18-.39,3.42,3.42,0,0,1-1-3.46A3.42,3.42,0,0,1,25.67.1a3.48,3.48,0,0,1,3.17,6,.54.54,0,0,0-.19.39v2a18,18,0,0,1,5,1.33l1-1.74a.51.51,0,0,0,0-.42,3.48,3.48,0,0,1,4.87-4.19.72.72,0,0,1-.65,1.29,3,3,0,0,0-.36-.14,2,2,0,0,0-2.48,2.59,2,2,0,0,1-.16,1.59l-1.33,2.31a.72.72,0,0,1-.94.29,16.52,16.52,0,0,0-5.78-1.54.72.72,0,0,1-.67-.72V6.45A2,2,0,0,1,27.87,5a2,2,0,0,0,.67-1.5,2,2,0,0,0-.77-1.6A2.06,2.06,0,0,0,26,1.5,2,2,0,0,0,25.14,5a2,2,0,0,1,.66,1.46V9.12a.72.72,0,0,1-.67.72,16.52,16.52,0,0,0-5.78,1.54.7.7,0,0,1-.93-.29L17.08,8.78a2,2,0,0,1-.15-1.6,2,2,0,0,0-.17-1.63,2,2,0,0,0-3.19-.45,2,2,0,0,0,1,3.45,2,2,0,0,1,1.31.93L17.2,11.8a.71.71,0,0,1-.21.95A16.75,16.75,0,0,0,12.75,17a.71.71,0,0,1-.95.21L9.49,15.87a2,2,0,0,1-.94-1.31,2,2,0,1,0-3.43,1.87,2,2,0,0,0,2.07.5,2,2,0,0,1,1.59.15l2.31,1.33a.72.72,0,0,1,.29.94,16.68,16.68,0,0,0-1.54,5.78A.72.72,0,0,1,9.12,25.8Z"/><path d="M26.5,39.83A13.35,13.35,0,0,1,13.17,26.5a.72.72,0,1,1,1.44,0A11.89,11.89,0,1,0,26.5,14.61a.72.72,0,1,1,0-1.44,13.33,13.33,0,0,1,0,26.66Z"/></g></g></svg>