<svg xmlns="http://www.w3.org/2000/svg" viewBox="0 0 50.17 58.65"><title>isolation</title><g id="Layer_2" data-name="Layer 2"><g id="Layer_1-2" data-name="Layer 1"><path d="M25.09,58.65a.86.86,0,0,1-.36-.07C.28,47.87,0,10.1,0,9.72a.9.9,0,0,1,.8-.89A53.22,53.22,0,0,0,24.55.18a.89.89,0,0,1,1.07,0A53.49,53.49,0,0,0,49.38,8.83a.9.9,0,0,1,.79.89c0,.38-.27,38.15-24.72,48.86A.92.92,0,0,1,25.09,58.65ZM1.8,10.51C2,15.91,4,47.19,25.09,56.78c21.13-9.59,23.1-40.87,23.28-46.27A54.92,54.92,0,0,1,25.09,2,55,55,0,0,1,1.8,10.51Z"/><path d="M25.08,55l-.4-.21c-17-8.63-20.41-32.23-21.09-42L3.53,12l.8-.14A57.82,57.82,0,0,0,24.62,4.27L25.08,4l.47.29a57.81,57.81,0,0,0,20.3,7.55l.79.14,0,.81c-.67,9.74-4.08,33.32-21.1,42ZM5.43,13.44c.67,8.14,3.94,31.15,19.65,39.5,15.76-8.36,19-31.36,19.67-39.5A59.69,59.69,0,0,1,25.08,6.07,59.54,59.54,0,0,1,5.43,13.44Z"/><path d="M25.09,2.68V.89S25.09,2.68,25.09,2.68Z"/><path d="M33.05,35.84H17.12a.89.89,0,0,1-.89-.9V21.1a.89.89,0,0,1,.89-.89H33.05a.89.89,0,0,1,.89.89V34.94A.89.89,0,0,1,33.05,35.84ZM18,34.05H32.16V22H18Z"/><path d="M35.23,22H15a.87.87,0,0,1-.84-.59.89.89,0,0,1,.26-1l10.14-8.48a.89.89,0,0,1,1.15,0L35.8,20.41A.89.89,0,0,1,35.23,22ZM17.4,20.21H32.77l-7.68-6.43Z"/><path d="M27.18,35.84H23a.89.89,0,0,1-.89-.9V28a.89.89,0,0,1,.89-.89h4.19a.89.89,0,0,1,.89.89v6.92A.89.89,0,0,1,27.18,35.84Zm-3.29-1.79h2.4V28.92h-2.4Z"/><path d="M35.56,35.84h-21a.9.9,0,0,1,0-1.79h21a.9.9,0,1,1,0,1.79Z"/><path d="M32.67,39.93H17.5a.89.89,0,0,1,0-1.78H32.67a.89.89,0,0,1,0,1.78Z"/></g></g></svg>