<svg xmlns="http://www.w3.org/2000/svg" viewBox="0 0 52.77 61.5"><defs><style>.cls-1{fill:#1a171b;}</style></defs><title>screen</title><g id="Layer_2" data-name="Layer 2"><g id="Layer_1-2" data-name="Layer 1"><path class="cls-1" d="M13.94,56.8a.93.93,0,0,0,.66,1.59,1,1,0,0,0,.66-.27,1,1,0,0,0,.27-.66,1,1,0,0,0-.27-.66A1,1,0,0,0,13.94,56.8Z"/><path class="cls-1" d="M23.3,56.53a.93.93,0,1,0,.93.93A.93.93,0,0,0,23.3,56.53Z"/><path class="cls-1" d="M31.34,56.8a.94.94,0,0,0-.28.66.94.94,0,0,0,.93.93.94.94,0,0,0,.66-.27.89.89,0,0,0,.28-.66.92.92,0,0,0-.28-.66A1,1,0,0,0,31.34,56.8Z"/><path class="cls-1" d="M24.23,5a.93.93,0,0,0,0-1.86.93.93,0,1,0,0,1.86Z"/><path class="cls-1" d="M51.84,14.27H46.59V5.9A5.91,5.91,0,0,0,40.69,0H5.9A5.91,5.91,0,0,0,0,5.9V55.6a5.91,5.91,0,0,0,5.9,5.9H40.69a5.91,5.91,0,0,0,5.9-5.9v-10h5.25a.92.92,0,0,0,.93-.93V15.2A.93.93,0,0,0,51.84,14.27ZM1.86,5.9a4,4,0,0,1,4-4H40.69a4,4,0,0,1,4,4V7.17a4.62,4.62,0,0,0-2.8-1H4.66a4.67,4.67,0,0,0-2.8,1Zm0,5a2.8,2.8,0,0,1,2.8-2.79H41.93a2.8,2.8,0,0,1,2.8,2.79v3.4H9.47a.93.93,0,0,0-.93.93V44.68a1,1,0,0,0,.27.66,1,1,0,0,0,.66.27H20.59l7.82,7.81H4.66a2.8,2.8,0,0,1-2.8-2.79ZM44.73,55.6a4,4,0,0,1-4,4H5.9a4,4,0,0,1-4-4V54.33a4.67,4.67,0,0,0,2.8,1H41.93a4.62,4.62,0,0,0,2.8-1Zm0-5a2.8,2.8,0,0,1-2.8,2.79h-9l7.81-7.81h4Zm6.18-6.88H40.34a.9.9,0,0,0-.66.27l-9,9-9-9a.91.91,0,0,0-.66-.27H10.41V16.13h40.5Z"/><path class="cls-1" d="M24.69,32.75,23.6,39.1a.94.94,0,0,0,1.35,1l5.71-3,5.71,3a.91.91,0,0,0,.43.1.93.93,0,0,0,.55-.18.92.92,0,0,0,.37-.91l-1.09-6.35,4.62-4.51a.92.92,0,0,0,.23-.95,1,1,0,0,0-.75-.64l-6.38-.92-2.86-5.79a1,1,0,0,0-1.67,0L27,25.73l-6.39.92a1,1,0,0,0-.75.64.91.91,0,0,0,.24.95Zm3-5.25a.91.91,0,0,0,.7-.51l2.24-4.53L32.89,27a.92.92,0,0,0,.71.51l5,.73L35,31.75a1,1,0,0,0-.27.83l.85,5-4.47-2.35a.81.81,0,0,0-.43-.11.87.87,0,0,0-.44.11l-4.47,2.35.86-5a1,1,0,0,0-.27-.83l-3.62-3.52Z"/></g></g></svg>