<svg xmlns="http://www.w3.org/2000/svg" viewBox="0 0 52.12 54.26"><title>clean-night</title><g id="Layer_2" data-name="Layer 2"><g id="Layer_1-2" data-name="Layer 1"><path d="M50,29.27a24.3,24.3,0,0,0-.15-2.73.72.72,0,0,0-.6-.62.7.7,0,0,0-.76.4A15.47,15.47,0,1,1,27.94,5.79a.69.69,0,0,0,.4-.76.7.7,0,0,0-.62-.59A24,24,0,0,0,25,4.28a25,25,0,1,0,25,25ZM25,52.83A23.56,23.56,0,0,1,25,5.71h.17a16.89,16.89,0,1,0,23.39,23.4v.16A23.59,23.59,0,0,1,25,52.83Zm-3.47-2.58a.7.7,0,0,1-.69.54.47.47,0,0,1-.17,0A23.43,23.43,0,0,1,3.5,35.05.72.72,0,0,1,4,34.14a.71.71,0,0,1,.9.46A22,22,0,0,0,21,49.39.71.71,0,0,1,21.52,50.25ZM43.5,4a1.07,1.07,0,0,0-.88-.74L40,2.91,38.81.59a1.09,1.09,0,0,0-1-.59,1.1,1.1,0,0,0-1,.59L35.7,2.91l-2.64.37a1.07,1.07,0,0,0-.88.74,1.05,1.05,0,0,0,.28,1.1l1.9,1.8-.45,2.53a1.05,1.05,0,0,0,.42,1,1,1,0,0,0,.65.22,1.11,1.11,0,0,0,.5-.12l2.36-1.21,2.36,1.21a1.09,1.09,0,0,0,1.15-.1,1.05,1.05,0,0,0,.42-1l-.45-2.53,1.9-1.8A1.05,1.05,0,0,0,43.5,4ZM40.2,6a1.09,1.09,0,0,0-.32,1l.36,2-1.9-1a1.1,1.1,0,0,0-1,0l-1.9,1,.36-2a1.09,1.09,0,0,0-.32-1L34,4.59l2.09-.29a1.09,1.09,0,0,0,.82-.59l1-1.87.95,1.88a1.1,1.1,0,0,0,.82.58l2.09.29Zm11.88,8.63a1,1,0,0,0-.83-.69l-2-.28L48.38,12a1,1,0,0,0-1.8,0l-.88,1.71-2,.28a1,1,0,0,0-.82.69,1,1,0,0,0,.28,1L44.58,17l-.34,1.86a1,1,0,0,0,.39,1,1,1,0,0,0,1.06.09L47.48,19l1.79.89a1,1,0,0,0,.46.11,1,1,0,0,0,.6-.2,1,1,0,0,0,.39-1L50.38,17l1.42-1.32A1,1,0,0,0,52.08,14.64Zm-2.85,1.45a1,1,0,0,0-.3.89l.23,1.25-1.23-.61a1,1,0,0,0-.91,0l-1.22.61L46,17a1,1,0,0,0-.31-.89l-.91-.85,1.3-.18a1,1,0,0,0,.75-.53l.62-1.19.61,1.19a1.05,1.05,0,0,0,.76.53l1.3.18Zm-18.5,1L29.26,20,26,20.46a1.12,1.12,0,0,0-.94.79,1.13,1.13,0,0,0,.3,1.19l2.36,2.27-.56,3.2a1.16,1.16,0,0,0,1.15,1.36,1.16,1.16,0,0,0,.54-.13l2.93-1.52,2.93,1.52a1.16,1.16,0,0,0,1.69-1.23l-.56-3.2,2.37-2.27a1.16,1.16,0,0,0-.64-2L34.28,20l-1.46-2.93a1.17,1.17,0,0,0-2.09,0Zm2.33,3.69a1.16,1.16,0,0,0,.88.63l2.87.41-2.07,2a1.16,1.16,0,0,0-.34,1l.49,2.82-2.58-1.34a1.13,1.13,0,0,0-.54-.13,1.16,1.16,0,0,0-.54.13l-2.58,1.34.49-2.82a1.14,1.14,0,0,0-.34-1l-2.07-2,2.88-.41a1.16,1.16,0,0,0,.87-.63l1.29-2.58Z"/></g></g></svg>