<svg xmlns="http://www.w3.org/2000/svg" viewBox="0 0 58.35 60.84"><style>.cls-1{fill:#fff;}</style><title>cost</title><g id="Layer_2" data-name="Layer 2"><g id="Layer_1-2" class="cls-1" data-name="Layer 1"><path d="M36.81,60.84H9.88A.92.92,0,0,1,9,59.91V8.6a.92.92,0,0,1,.93-.93H49a.92.92,0,0,1,.93.93V21.38a.93.93,0,0,1-1.86,0V9.53H10.81V59h26a.93.93,0,0,1,0,1.86Z"/><path d="M5.41,53.18H.93A.94.94,0,0,1,0,52.24V.93A.93.93,0,0,1,.93,0H40.06A.93.93,0,0,1,41,.93V4.77a.93.93,0,0,1-.93.93H6.34V52.24A.94.94,0,0,1,5.41,53.18ZM1.87,51.31h2.6V4.77a.94.94,0,0,1,.94-.94H39.12v-2H1.87Z"/><path d="M9.88,57H5.41a.94.94,0,0,1-.94-.93V4.77a.94.94,0,0,1,.94-.94H44.53a.94.94,0,0,1,.93.94V8.6a.93.93,0,0,1-.93.93H10.81V56.08A.93.93,0,0,1,9.88,57ZM6.34,55.15H9V8.6a.92.92,0,0,1,.93-.93H43.6v-2H6.34Z"/><path d="M55.15,60.84H41.7a.93.93,0,0,1-.93-.93V55.66a.94.94,0,0,1,.93-.94H55.15a.93.93,0,0,1,.93.94v4.25A.92.92,0,0,1,55.15,60.84ZM42.64,59H54.22V56.59H42.64Z"/><path d="M56.78,56.59H43.34a.94.94,0,0,1-.94-.93V51.4a.93.93,0,0,1,.94-.93H56.78a.93.93,0,0,1,.94.93v4.26A.94.94,0,0,1,56.78,56.59ZM44.27,54.72H55.85V52.33H44.27Z"/><path d="M55.15,52.33H41.7a.93.93,0,0,1-.93-.93V47.14a.93.93,0,0,1,.93-.93H55.15a.93.93,0,0,1,.93.93V51.4A.93.93,0,0,1,55.15,52.33ZM42.64,50.47H54.22v-2.4H42.64Z"/><path d="M55.15,48.07H41.7a.93.93,0,0,1-.93-.93V42.89A.94.94,0,0,1,41.7,42H55.15a.93.93,0,0,1,.93.94v4.25A.92.92,0,0,1,55.15,48.07ZM42.64,46.21H54.22V43.82H42.64Z"/><path d="M42.85,18H16a.93.93,0,0,1,0-1.86H42.85a.93.93,0,0,1,0,1.86Z"/><path d="M42.85,23.79H16a.94.94,0,0,1,0-1.87H42.85a.94.94,0,0,1,0,1.87Z"/><path d="M37.47,29.54H16a.94.94,0,0,1,0-1.87H37.47a.94.94,0,0,1,0,1.87Z"/><path d="M36,35.29H16a.94.94,0,0,1,0-1.87H36a.94.94,0,0,1,0,1.87Z"/><path d="M36,41H16a.93.93,0,0,1,0-1.86H36A.93.93,0,0,1,36,41Z"/><path d="M36,46.79H16a.93.93,0,0,1,0-1.86H36a.93.93,0,0,1,0,1.86Z"/><path d="M36,46.79H16a.93.93,0,0,1,0-1.86H36a.93.93,0,0,1,0,1.86Z"/><path d="M48.43,40.37a3.81,3.81,0,0,1-3.9-3.69.94.94,0,1,1,1.87,0,2,2,0,1,0,2-1.83,3.7,3.7,0,1,1,3.89-3.69.94.94,0,0,1-1.87,0,2,2,0,1,0-2,1.82,3.7,3.7,0,1,1,0,7.39Z"/><path d="M48.43,41.49a.94.94,0,0,1-.94-.94V27.28a.94.94,0,0,1,1.87,0V40.55A.94.94,0,0,1,48.43,41.49Z"/><path d="M48.43,43.82a9.92,9.92,0,1,1,9.92-9.92A9.93,9.93,0,0,1,48.43,43.82Zm0-18a8.06,8.06,0,1,0,8,8.06A8.07,8.07,0,0,0,48.43,25.84Z"/><path d="M20.49,56.59H13.72a.94.94,0,0,1,0-1.87h6.77a.94.94,0,1,1,0,1.87Z"/></g></g></svg>