<svg xmlns="http://www.w3.org/2000/svg" viewBox="0 0 69.59 48.74"><title>rain-night</title><g id="Layer_2" data-name="Layer 2"><g id="Layer_1-2" data-name="Layer 1"><path d="M9.07,39.68H24.86a.71.71,0,0,0,.82-.74.87.87,0,0,0-.82-.86H9.07a7.67,7.67,0,0,1-7-5.25,13.29,13.29,0,0,1-.35-5.07,12.93,12.93,0,0,1,11-11.07,12.7,12.7,0,0,1,2.22-.1c2.43.34,6.44,1.39,7.46,2.93a.83.83,0,0,0,1.15.23.83.83,0,0,0,.23-1.15A8,8,0,0,0,19.77,16,17.38,17.38,0,0,1,34.7,7.46c8.77,0,15.83,5.53,17.24,13.47a13.63,13.63,0,0,0-5.35,2.44.83.83,0,0,0-.16,1.16.82.82,0,0,0,1.16.16,11.46,11.46,0,0,1,6-2.31h0c10.12-.92,12,2.94,12.45,5.93s0,5.3-1.47,7a8.74,8.74,0,0,1-6.95,2.74H43.08a.87.87,0,0,0-.83.86.71.71,0,0,0,.83.74h14.6a10.11,10.11,0,0,0,8.21-3.27c1.77-2.09,2.41-5,1.85-8.38a8.15,8.15,0,0,0-2.58-5,13.22,13.22,0,0,0,4.43-9.82.8.8,0,0,0-.5-.75.83.83,0,0,0-.89.15,8.24,8.24,0,0,1-3.56,1.86,7.73,7.73,0,0,1-5.9-.84,7.82,7.82,0,0,1-3.62-4.84A7.84,7.84,0,0,1,57.06,1.4a.83.83,0,0,0,.17-.89A.84.84,0,0,0,56.48,0a13.8,13.8,0,0,0-3.54.41A13.13,13.13,0,0,0,44.13,8,20.62,20.62,0,0,0,34.7,5.8a19,19,0,0,0-16.5,9.61,14.82,14.82,0,0,0-3.08-.47l-.14,0a1,1,0,0,0-.18,0,15.55,15.55,0,0,0-2.26.11,14.51,14.51,0,0,0-12,18.23A9.16,9.16,0,0,0,9.07,39.68ZM53.35,2a12.43,12.43,0,0,1,1.33-.25A9.58,9.58,0,0,0,57.9,15.1a9.38,9.38,0,0,0,7.15,1A10.89,10.89,0,0,0,67.81,15a11.72,11.72,0,0,1-4.05,7.11c-2.35-1.31-5.71-1.77-10.13-1.38h0a17.41,17.41,0,0,0-8-11.86A11.46,11.46,0,0,1,53.35,2ZM14.87,18.23a.83.83,0,1,1,0,1.66C8.57,19.89,5,23.81,5,30.66a.83.83,0,0,1-1.66,0C3.3,22.87,7.63,18.23,14.87,18.23Zm34.7,9.11a.81.81,0,0,1-.66-.33.83.83,0,0,1,.16-1.16,9.16,9.16,0,0,1,7.31-1.8.83.83,0,0,1-.4,1.61,7.49,7.49,0,0,0-5.91,1.52A.85.85,0,0,1,49.57,27.34ZM34,48.74A6.41,6.41,0,0,0,40.6,42.6c0-3-5.76-15-6.41-16.31a.79.79,0,0,0-.78-.47.85.85,0,0,0-.74.52c-.54,1.35-5.33,13.25-5.33,16.26A6.4,6.4,0,0,0,34,48.74Zm-.46-20c2.43,5.14,5.43,12.09,5.43,13.89a4.76,4.76,0,0,1-5,4.49,4.76,4.76,0,0,1-5-4.49C29,40.63,31.81,33,33.51,28.71Z"/></g></g></svg>