<svg xmlns="http://www.w3.org/2000/svg" viewBox="0 0 71.93 51.62"><title>rain-day</title><g id="Layer_2" data-name="Layer 2"><g id="Layer_1-2" data-name="Layer 1"><path d="M53.28,41.75H42.1a.75.75,0,0,1-.83-.77.84.84,0,0,1,.83-.83H53.28a8.06,8.06,0,0,0,6.36-2.53C61,36,61.44,33.86,61,31.15s-2.13-6.28-11.42-5.43A1.5,1.5,0,0,1,48,24.46c-1.24-7.38-7.76-12.54-15.87-12.54A16,16,0,0,0,18.24,20a1.59,1.59,0,0,1-1.8.75,11.85,11.85,0,0,0-4.59-.3A11.82,11.82,0,0,0,2.08,35.31a7,7,0,0,0,6.36,4.84H20.56a.84.84,0,0,1,.83.83.75.75,0,0,1-.83.77H8.44a8.57,8.57,0,0,1-8-6A13.49,13.49,0,0,1,11.63,18.81a13.44,13.44,0,0,1,5.24.34,17.48,17.48,0,0,1,15.21-8.89c8.89,0,16.06,5.67,17.48,13.8,7.92-.7,12.19,1.54,13.07,6.82.52,3.17-.08,5.87-1.73,7.82A9.48,9.48,0,0,1,53.28,41.75Z"/><path d="M21.41,23.42a.82.82,0,0,1-.69-.37c-1-1.45-4.82-2.43-7-2.71a.82.82,0,0,1-.71-.92.82.82,0,0,1,.92-.72c.66.08,6.52.89,8.21,3.43a.83.83,0,0,1-.23,1.15A.86.86,0,0,1,21.41,23.42Z"/><path d="M43.51,28a.84.84,0,0,1-.5-1.5,12,12,0,0,1,6.6-2.46.83.83,0,0,1,.83.83.84.84,0,0,1-.83.83A10.41,10.41,0,0,0,44,27.85.84.84,0,0,1,43.51,28Z"/><path d="M3.88,34.15a.83.83,0,0,1-.83-.83c0-7.24,4-11.56,10.74-11.56a.83.83,0,1,1,0,1.66c-7.9,0-9.08,6.2-9.08,9.9A.83.83,0,0,1,3.88,34.15Z"/><path d="M45.8,30.31a.83.83,0,0,1-.66-.32.84.84,0,0,1,.16-1.17,8.55,8.55,0,0,1,6.8-1.67.83.83,0,0,1-.4,1.61,6.83,6.83,0,0,0-5.4,1.39A.83.83,0,0,1,45.8,30.31Z"/><path d="M59.22,27a.85.85,0,0,1-.59-.25.83.83,0,0,1,0-1.17A8.51,8.51,0,0,0,61,17.69a8.67,8.67,0,0,0-10.34-6.47,8.57,8.57,0,0,0-5.84,4.51.83.83,0,0,1-1.12.37A.82.82,0,0,1,43.29,15a10.21,10.21,0,0,1,7-5.39,10.33,10.33,0,0,1,12.31,7.73,10.12,10.12,0,0,1-2.76,9.44A.83.83,0,0,1,59.22,27Z"/><path d="M67.8,29.72a.78.78,0,0,1-.5-.17L62.51,25.9a.82.82,0,0,1-.16-1.16.83.83,0,0,1,1.16-.16l4.79,3.65a.83.83,0,0,1-.5,1.49Z"/><path d="M43.3,11.5a.8.8,0,0,1-.5-.17L38,7.68a.83.83,0,0,1,1-1.32L43.81,10A.84.84,0,0,1,44,11.18.83.83,0,0,1,43.3,11.5Z"/><path d="M51.72,7.91a.84.84,0,0,1-.83-.79L50.55.88A.81.81,0,0,1,51.33,0a.8.8,0,0,1,.87.78L52.54,7a.81.81,0,0,1-.78.87Z"/><path d="M61.51,10.48A.81.81,0,0,1,61,10.3a.83.83,0,0,1-.13-1.17l3.9-4.88a.85.85,0,0,1,1.17-.13.83.83,0,0,1,.13,1.17l-3.91,4.88A.83.83,0,0,1,61.51,10.48Z"/><path d="M64.85,18.92a.83.83,0,0,1,0-1.65l6.24-.35a.82.82,0,0,1,.87.78.83.83,0,0,1-.78.88l-6.24.34Z"/><path d="M31.33,51.62a6.41,6.41,0,0,1-6.63-6.15c0-3,4.79-14.91,5.33-16.26a.84.84,0,0,1,.74-.51.77.77,0,0,1,.78.46C32.2,30.51,38,42.43,38,45.47A6.42,6.42,0,0,1,31.33,51.62Zm-.46-20c-1.7,4.32-4.51,11.91-4.51,13.88a4.75,4.75,0,0,0,5,4.49,4.75,4.75,0,0,0,5-4.49C36.3,43.67,33.3,36.72,30.87,31.59Z"/></g></g></svg>