<svg xmlns="http://www.w3.org/2000/svg" viewBox="0 0 59.8 59.8"><defs><style>.cls-1{fill:#fff;}</style></defs><title>scale</title><g id="Layer_2" data-name="Layer 2"><g id="Layer_1-2" data-name="Layer 1"><path class="cls-1" d="M55.35,6.8H46.69a24.13,24.13,0,0,0-33.58,0H4.45A4.45,4.45,0,0,0,0,11.25v44.1A4.46,4.46,0,0,0,4.45,59.8h50.9a4.46,4.46,0,0,0,4.45-4.45V11.25A4.45,4.45,0,0,0,55.35,6.8ZM58,55.35A2.65,2.65,0,0,1,55.35,58H4.45a2.65,2.65,0,0,1-2.64-2.64V11.25A2.64,2.64,0,0,1,4.45,8.61h9a.91.91,0,0,0,.64-.27,22.33,22.33,0,0,1,31.56,0,.91.91,0,0,0,.64.27h9A2.64,2.64,0,0,1,58,11.25Z"/><path class="cls-1" d="M41.34,24.92l4.53-9.82a.92.92,0,0,0-.07-.88,19.07,19.07,0,0,0-31.8,0,.92.92,0,0,0-.07.88l4.53,9.82a.91.91,0,0,0,.82.53H40.51A.92.92,0,0,0,41.34,24.92ZM27.77,23.18a2.25,2.25,0,0,0,.08-.24c.1-.29.2-.58.31-.88v0c.1-.29.21-.57.31-.86l.12-.3c.07-.2.14-.39.22-.58L29,20l.21-.53c0-.1.08-.21.13-.31l.21-.52c0-.09.07-.18.11-.27l.29-.69q.15.33.3.72c0,.05.05.12.08.18l.24.6.1.25.24.6c0,.09.07.19.11.28s.17.43.25.65l.09.24c.22.59.44,1.19.64,1.77,0,.08.05.16.07.24s.1.3.15.45H27.63C27.68,23.48,27.72,23.33,27.77,23.18Zm6.3.45v0h0c-.07-.23-.14-.47-.22-.71,0-.05,0-.1-.05-.15s-.13-.38-.19-.58a2.09,2.09,0,0,1-.08-.23l-.18-.51a2.31,2.31,0,0,1-.1-.28l-.18-.47-.1-.28-.18-.46c0-.1-.07-.19-.11-.28l-.17-.45-.11-.27-.17-.42-.11-.27c0-.14-.11-.27-.16-.39l-.11-.26-.15-.37a2.14,2.14,0,0,0-.1-.22,3.27,3.27,0,0,0-.14-.33,1.8,1.8,0,0,1-.08-.21l-.13-.28a1.08,1.08,0,0,0-.08-.19L31,15.71l0-.09-.11-.25a.33.33,0,0,0,0-.06.73.73,0,0,0-.05-.12c0-.1-.08-.17-.08-.19a.91.91,0,0,0-1.66,0s0,.09-.08.19l0,.12,0,.08a1.65,1.65,0,0,0-.09.22l-.06.12c0,.09-.07.17-.12.27l-.06.15c-.05.1-.09.2-.14.31a1.8,1.8,0,0,1-.08.21l-.14.33a1.6,1.6,0,0,0-.1.23l-.15.35-.12.28c0,.12-.09.24-.14.36s-.08.2-.13.3l-.15.38c0,.11-.08.21-.13.32l-.15.4L27,20l-.15.4c0,.11-.09.22-.13.34l-.15.41-.12.33-.15.42c0,.11-.08.22-.11.33s-.1.28-.14.42-.07.21-.11.31-.09.3-.13.44l-.09.27H19.86l-4.07-8.82a17.43,17.43,0,0,1,4.43-4.35l1.15,2a.89.89,0,0,0,.78.44.93.93,0,0,0,.46-.12.9.9,0,0,0,.32-1.24l-1.16-2a17.14,17.14,0,0,1,7.22-2V9.74a.91.91,0,1,0,1.82,0V7.52a17.14,17.14,0,0,1,7.22,2l-1.16,2a.9.9,0,0,0,.32,1.24,1,1,0,0,0,.46.12.89.89,0,0,0,.78-.44l1.15-2A17.43,17.43,0,0,1,44,14.81l-4.07,8.82Z"/><path class="cls-1" d="M29.9,30.72a.91.91,0,0,0-.91.91v19.5H8.63V25.45H11.2a.91.91,0,0,0,0-1.82H7.72a.9.9,0,0,0-.9.91V52a.9.9,0,0,0,.9.91H29.9a.91.91,0,0,0,.91-.91V31.63A.91.91,0,0,0,29.9,30.72Z"/><path class="cls-1" d="M52.08,23.63H48.6a.91.91,0,0,0,0,1.82h2.57V51.13H34.43a.91.91,0,1,0,0,1.81H52.08A.9.9,0,0,0,53,52V24.54A.9.9,0,0,0,52.08,23.63Z"/></g></g></svg>