<svg xmlns="http://www.w3.org/2000/svg" viewBox="0 0 69.59 52.11"><title>snow-night</title><g id="Layer_2" data-name="Layer 2"><g id="Layer_1-2" data-name="Layer 1"><path d="M9.07,39.77h9.16a.83.83,0,0,0,.83-.83.75.75,0,0,0-.83-.77H9.07a7.88,7.88,0,0,1-7-5.34,13.29,13.29,0,0,1-.35-5.07,12.93,12.93,0,0,1,11-11.07,12.7,12.7,0,0,1,2.22-.1c2.44.34,6.44,1.39,7.46,2.93a.83.83,0,0,0,1.15.23.83.83,0,0,0,.23-1.15A8,8,0,0,0,19.77,16,17.38,17.38,0,0,1,34.7,7.46c8.77,0,15.83,5.53,17.24,13.47a13.63,13.63,0,0,0-5.35,2.44.83.83,0,0,0-.16,1.16.82.82,0,0,0,1.16.16,11.59,11.59,0,0,1,6-2.32h0c10.12-.92,12,2.94,12.45,5.93s0,5.3-1.47,7a9.1,9.1,0,0,1-6.95,2.83H48.05a.74.74,0,0,0-.82.77.83.83,0,0,0,.82.83h9.63a10.45,10.45,0,0,0,8.21-3.36c1.77-2.09,2.41-5,1.85-8.38a8.15,8.15,0,0,0-2.58-5,13.22,13.22,0,0,0,4.43-9.82.8.8,0,0,0-.5-.75.83.83,0,0,0-.89.15,8.24,8.24,0,0,1-3.56,1.86,7.73,7.73,0,0,1-5.9-.84,7.82,7.82,0,0,1-3.62-4.84A7.84,7.84,0,0,1,57.06,1.4a.83.83,0,0,0,.17-.89A.84.84,0,0,0,56.48,0a13.75,13.75,0,0,0-3.54.41A13.13,13.13,0,0,0,44.13,8,20.62,20.62,0,0,0,34.7,5.8a19,19,0,0,0-16.5,9.61,14.82,14.82,0,0,0-3.08-.47l-.14,0a1,1,0,0,0-.18,0,15.55,15.55,0,0,0-2.26.11,14.51,14.51,0,0,0-12,18.23A9.36,9.36,0,0,0,9.07,39.77ZM53.35,2a12.43,12.43,0,0,1,1.33-.25A9.58,9.58,0,0,0,57.9,15.1a9.33,9.33,0,0,0,7.15,1A10.52,10.52,0,0,0,67.81,15a11.72,11.72,0,0,1-4.05,7.11c-2.35-1.31-5.71-1.77-10.13-1.39h0a17.41,17.41,0,0,0-8-11.86A11.46,11.46,0,0,1,53.35,2ZM14.87,18.23a.83.83,0,1,1,0,1.66C8.57,19.89,5,23.81,5,30.66a.83.83,0,0,1-1.66,0C3.3,22.87,7.63,18.23,14.87,18.23Zm34.7,9.11a.81.81,0,0,1-.66-.33.83.83,0,0,1,.16-1.16,9.16,9.16,0,0,1,7.31-1.8.83.83,0,0,1-.4,1.61,7.49,7.49,0,0,0-5.91,1.52A.85.85,0,0,1,49.57,27.34Zm-5.72,14H42.11l1.6,1.6a.89.89,0,0,1,.17,1,.87.87,0,0,1-1.4.26l-2.82-2.82H34.94l3.34,3.33h3.77a.75.75,0,0,1,.69.45A.81.81,0,0,1,42,46.31H39.94l1.33,1.33a.84.84,0,0,1,.18.79.82.82,0,0,1-.77.55.85.85,0,0,1-.57-.23l-1.3-1.31v2.11a.77.77,0,0,1-.45.7.82.82,0,0,1-1.16-.73V45.79L34,42.59v4.6l2.61,2.61a.8.8,0,0,1,0,1.13.81.81,0,0,1-.57.24.8.8,0,0,1-.57-.24L34,49.46v1.81a.83.83,0,0,1-.78.84.8.8,0,0,1-.82-.8V49.57l-1.59,1.59a.87.87,0,0,1-.62.26.88.88,0,0,1-.79-.52.92.92,0,0,1,.18-1l2.82-2.82V42.4l-3.34,3.34v3.74a.82.82,0,0,1-.78.84.8.8,0,0,1-.82-.8V47.44l-1.31,1.31a.8.8,0,0,1-1.16,0,.83.83,0,0,1,.06-1.12l1.28-1.28h-2a.83.83,0,0,1-.84-.78.8.8,0,0,1,.8-.83h3.63l3.33-3.33H26.54L23.94,44a.8.8,0,0,1-.57.24.82.82,0,0,1-.54-.21.83.83,0,0,1,0-1.19l1.44-1.44H22.46a.82.82,0,0,1-.83-.78.8.8,0,0,1,.8-.82h1.85l-1.52-1.51a.86.86,0,0,1-.13-1,.83.83,0,0,1,1.29-.15l2.71,2.71h4.53L28,36.57H24.22a.77.77,0,0,1-.7-.45A.81.81,0,0,1,24.25,35h2.08L25,33.64a.78.78,0,0,1-.17-.82.8.8,0,0,1,1.32-.3l1.31,1.31V31.72a.75.75,0,0,1,.45-.69.8.8,0,0,1,1.15.72v3.59l3.34,3.33V34l-2.57-2.57a.83.83,0,0,1-.08-1.11.79.79,0,0,1,1.18-.05l1.47,1.47V29.92a.83.83,0,0,1,.78-.84.81.81,0,0,1,.82.81v1.84l1.51-1.51a.83.83,0,1,1,1.2,1.16L34,34.09v4.53l3.2-3.21V31.72a.75.75,0,0,1,.45-.69.81.81,0,0,1,1.16.72v2.08l1.32-1.33a.78.78,0,0,1,.82-.17.81.81,0,0,1,.3,1.33L39.94,35h2.11a.75.75,0,0,1,.69.45A.81.81,0,0,1,42,36.57H38.34l-3.21,3.2h4.61l2.57-2.58a.82.82,0,0,1,1.11-.07.79.79,0,0,1,0,1.18L42,39.77h1.82a.82.82,0,0,1,.83.78A.8.8,0,0,1,43.85,41.37Z"/></g></g></svg>