<svg xmlns="http://www.w3.org/2000/svg" viewBox="0 0 69.59 69.43"><title>storm-night</title><g id="Layer_2" data-name="Layer 2"><g id="Layer_1-2" data-name="Layer 1"><path d="M8.25,52.06v-8A.83.83,0,0,1,9,43.25a.79.79,0,0,1,.82.8v8a.83.83,0,0,1-.78.84A.8.8,0,0,1,8.25,52.06Zm0,12.42a.81.81,0,0,0,.82.81.83.83,0,0,0,.78-.84V56.52a.83.83,0,0,0-.78-.84.8.8,0,0,0-.82.8Zm11.61-10V46.57a.82.82,0,0,0-.78-.83.8.8,0,0,0-.82.8v8a.8.8,0,0,0,.82.8A.82.82,0,0,0,19.86,54.51ZM18.26,67a.8.8,0,0,0,.82.8.83.83,0,0,0,.78-.84V59a.83.83,0,0,0-.78-.84.81.81,0,0,0-.82.8Zm14,1.62V60.66a.83.83,0,0,0-.78-.84.8.8,0,0,0-.82.8v8a.8.8,0,0,0,.82.8A.83.83,0,0,0,32.27,68.59Zm11.61-22v7.94a.82.82,0,0,0,.78.83.8.8,0,0,0,.82-.8v-8a.8.8,0,0,0-.82-.8A.82.82,0,0,0,43.88,46.57Zm0,20.4a.8.8,0,0,0,.82.8.83.83,0,0,0,.78-.84V59a.83.83,0,0,0-.78-.84.81.81,0,0,0-.82.8ZM57.09,52V44.09a.83.83,0,0,0-.78-.84.8.8,0,0,0-.82.8v8a.8.8,0,0,0,.82.8A.83.83,0,0,0,57.09,52Zm-1.6,12.46a.81.81,0,0,0,.82.81.83.83,0,0,0,.78-.84V56.52a.83.83,0,0,0-.78-.84.8.8,0,0,0-.82.8ZM.12,27.55A14.62,14.62,0,0,1,12.54,15a15.42,15.42,0,0,1,2.25-.11,1.15,1.15,0,0,1,.19,0l.14,0a14.82,14.82,0,0,1,3.08.47A19,19,0,0,1,34.7,5.8,20.62,20.62,0,0,1,44.13,8,13.13,13.13,0,0,1,52.94.41,13.85,13.85,0,0,1,56.48,0a.84.84,0,0,1,.75.51.83.83,0,0,1-.17.89,7.84,7.84,0,0,0-1.94,7.43,7.82,7.82,0,0,0,3.62,4.84,7.73,7.73,0,0,0,5.9.84,8.24,8.24,0,0,0,3.56-1.86.83.83,0,0,1,.89-.15.8.8,0,0,1,.5.75,13.22,13.22,0,0,1-4.43,9.82,8.15,8.15,0,0,1,2.58,5c.56,3.4-.08,6.29-1.85,8.38a10.37,10.37,0,0,1-8.21,3.34H43.08a.8.8,0,0,1-.83-.81.77.77,0,0,1,.83-.79h14.6a9,9,0,0,0,6.95-2.81c1.46-1.73,2-4.1,1.47-7s-2.33-6.85-12.45-5.93h0a11.59,11.59,0,0,0-6,2.32.82.82,0,0,1-1.16-.16.83.83,0,0,1,.16-1.16,13.63,13.63,0,0,1,5.35-2.44C50.53,13,43.47,7.46,34.7,7.46A17.38,17.38,0,0,0,19.77,16a8,8,0,0,1,4.05,2.58.83.83,0,0,1-.23,1.15.83.83,0,0,1-1.15-.23c-1-1.54-5-2.59-7.46-2.93a12.7,12.7,0,0,0-2.22.1,12.93,12.93,0,0,0-11,11.07,13.29,13.29,0,0,0,.35,5.07,7.83,7.83,0,0,0,7,5.32H20.71a.77.77,0,0,1,.83.79.8.8,0,0,1-.83.81H9.07A9.32,9.32,0,0,1,.52,33.27,14.65,14.65,0,0,1,.12,27.55ZM45.6,8.86a17.41,17.41,0,0,1,8,11.86h0c4.42-.38,7.78.08,10.13,1.39A11.72,11.72,0,0,0,67.81,15a10.52,10.52,0,0,1-2.76,1.12,9.37,9.37,0,0,1-7.15-1A9.58,9.58,0,0,1,54.68,1.76,12.43,12.43,0,0,0,53.35,2,11.46,11.46,0,0,0,45.6,8.86ZM3.3,30.66a.83.83,0,0,0,1.66,0c0-6.85,3.61-10.77,9.91-10.77a.83.83,0,1,0,0-1.66C7.63,18.23,3.3,22.87,3.3,30.66Zm46.77-3.48A7.49,7.49,0,0,1,56,25.66a.83.83,0,0,0,.4-1.61,9.16,9.16,0,0,0-7.31,1.8A.83.83,0,0,0,48.91,27a.81.81,0,0,0,.66.33A.85.85,0,0,0,50.07,27.18ZM40.44,27l-4.85,8.09h3.2a.82.82,0,0,1,.51.16.83.83,0,0,1,.21,1.1L27.83,55a.81.81,0,0,1-.69.39.87.87,0,0,1-.32-.06.82.82,0,0,1-.49-.94l3-13.23-3.53.22A.82.82,0,0,1,25,40.22l6.66-14a.85.85,0,0,1,.75-.47h7.32a.82.82,0,0,1,.51.16A.82.82,0,0,1,40.44,27Zm-2.16.35H32.91L27.07,39.62l3.22-.2h.06a.81.81,0,0,1,.62.29.82.82,0,0,1,.18.72L29,50l8.32-13.32H34.16a.84.84,0,0,1-.51-.16.81.81,0,0,1-.22-1.08Z"/></g></g></svg>