<svg xmlns="http://www.w3.org/2000/svg" viewBox="0 0 37.55 53.55"><defs><style>.cls-1{fill:#fff;}</style></defs><title>temperature</title><g id="Layer_2" data-name="Layer 2"><g id="Layer_1-2" data-name="Layer 1"><path class="cls-1" d="M33.41,0H4.14A4,4,0,0,0,0,3.9V49.64a4,4,0,0,0,4.14,3.91H33.41a4,4,0,0,0,4.14-3.91V3.9A4,4,0,0,0,33.41,0Zm2.06,49.64a2,2,0,0,1-2.06,1.82H4.14a1.94,1.94,0,0,1-2-1.82V3.9A1.94,1.94,0,0,1,4.14,2.09H33.41A2,2,0,0,1,35.47,3.9Z"/><path class="cls-1" d="M22.41,35.47V10.4a3.83,3.83,0,0,0-7.65,0V35.71c-1.48,1.17-3.53,3.52-3.53,6.33a7.6,7.6,0,0,0,7.66,7.33,7.37,7.37,0,0,0,3.52-13.9ZM16.85,10.4a1.74,1.74,0,0,1,3.48,0V28.28H16.85Zm7,33.51a5.37,5.37,0,0,1-5,3.38A5.56,5.56,0,0,1,13.32,42c0-2.25,2-4.22,3.08-4.95a1,1,0,0,0,.45-.86V30.37h3.48v5.76a1,1,0,0,0,.64,1A5.38,5.38,0,0,1,23.9,43.91Z"/><path class="cls-1" d="M10.86,35.8H5.29a1,1,0,1,1,0-2.06h5.57a1,1,0,1,1,0,2.06Z"/><path class="cls-1" d="M10.86,31H7.38a1,1,0,1,1,0-2.06h3.48a1,1,0,1,1,0,2.06Z"/><path class="cls-1" d="M10.86,26.2H5.29a1.14,1.14,0,0,1,0-2.28h5.57a1.14,1.14,0,0,1,0,2.28Z"/><path class="cls-1" d="M10.86,21.18H7.38a1,1,0,1,1,0-2.06h3.48a1,1,0,1,1,0,2.06Z"/><path class="cls-1" d="M10.86,16.38H5.29a1,1,0,1,1,0-2.06h5.57a1,1,0,1,1,0,2.06Z"/><path class="cls-1" d="M10.86,11.58H7.38a1,1,0,1,1,0-2.06h3.48a1,1,0,1,1,0,2.06Z"/><path class="cls-1" d="M32.41,36.48H26.85a1,1,0,1,1,0-2h5.56a1,1,0,1,1,0,2Z"/><path class="cls-1" d="M30.33,31.68H26.85a1,1,0,1,1,0-2.05h3.48a1,1,0,1,1,0,2.05Z"/><path class="cls-1" d="M32.41,26.89H26.85a1,1,0,1,1,0-2.06h5.56a1,1,0,1,1,0,2.06Z"/><path class="cls-1" d="M30.33,21.86H26.85a1,1,0,1,1,0-2.06h3.48a1,1,0,1,1,0,2.06Z"/><path class="cls-1" d="M32.41,17.06H26.85a1,1,0,1,1,0-2h5.56a1,1,0,1,1,0,2Z"/><path class="cls-1" d="M30.33,12.27H26.85a1,1,0,1,1,0-2.06h3.48a1,1,0,1,1,0,2.06Z"/></g></g></svg>