<svg xmlns="http://www.w3.org/2000/svg" viewBox="0 0 69.59 56.2"><title>thunder-night</title><g id="Layer_2" data-name="Layer 2"><g id="Layer_1-2" data-name="Layer 1"><path d="M14.87,18.23a.83.83,0,1,1,0,1.66C8.57,19.89,5,23.81,5,30.66a.83.83,0,0,1-1.66,0C3.3,22.87,7.63,18.23,14.87,18.23Zm35.2,9A7.49,7.49,0,0,1,56,25.66a.83.83,0,0,0,.4-1.61,9.16,9.16,0,0,0-7.31,1.8A.83.83,0,0,0,48.91,27a.81.81,0,0,0,.66.33A.85.85,0,0,0,50.07,27.18ZM69.59,13.25a13.22,13.22,0,0,1-4.43,9.82,8.15,8.15,0,0,1,2.58,5c.56,3.4-.08,6.29-1.85,8.38a10.34,10.34,0,0,1-8.21,3.33H42.25a.8.8,0,1,1,0-1.6H57.68a9,9,0,0,0,6.95-2.8c1.46-1.73,2-4.1,1.47-7s-2.33-6.85-12.45-5.93h0a11.47,11.47,0,0,0-6,2.31.82.82,0,0,1-1.16-.16.83.83,0,0,1,.16-1.16,13.63,13.63,0,0,1,5.35-2.44C50.53,13,43.47,7.46,34.7,7.46A17.38,17.38,0,0,0,19.77,16a8,8,0,0,1,4.05,2.58.83.83,0,0,1-.23,1.15.83.83,0,0,1-1.15-.23c-1-1.54-5-2.59-7.46-2.93a12.7,12.7,0,0,0-2.22.1,12.93,12.93,0,0,0-11,11.07,13.29,13.29,0,0,0,.35,5.07,7.81,7.81,0,0,0,7,5.31h13.3a.8.8,0,1,1,0,1.6H9.07A9.3,9.3,0,0,1,.52,33.27,14.51,14.51,0,0,1,12.54,15a14.25,14.25,0,0,1,2.26-.1.52.52,0,0,1,.18,0l.14,0a14.82,14.82,0,0,1,3.08.47A19,19,0,0,1,34.7,5.8,20.62,20.62,0,0,1,44.13,8,13.13,13.13,0,0,1,52.94.41,13.33,13.33,0,0,1,56.48,0a.84.84,0,0,1,.75.51.83.83,0,0,1-.17.89,7.85,7.85,0,0,0-1.94,7.43,7.82,7.82,0,0,0,3.62,4.84,7.73,7.73,0,0,0,5.9.84,8.33,8.33,0,0,0,3.56-1.85.82.82,0,0,1,.89-.16A.8.8,0,0,1,69.59,13.25ZM67.81,15a10.89,10.89,0,0,1-2.76,1.13,9.38,9.38,0,0,1-7.15-1A9.58,9.58,0,0,1,54.68,1.76,12.43,12.43,0,0,0,53.35,2,11.46,11.46,0,0,0,45.6,8.86a17.41,17.41,0,0,1,8,11.86h0c4.42-.39,7.78.07,10.13,1.38A11.72,11.72,0,0,0,67.81,15ZM40.44,27.78l-4.85,8.09h3.2a.82.82,0,0,1,.51.16.83.83,0,0,1,.21,1.1L27.83,55.81a.81.81,0,0,1-.69.39.87.87,0,0,1-.32-.06.82.82,0,0,1-.49-.94L29.3,42l-3.53.22a.84.84,0,0,1-.73-.36A.83.83,0,0,1,25,41l6.66-14a.83.83,0,0,1,.75-.47h7.32a.82.82,0,0,1,.51.16A.82.82,0,0,1,40.44,27.78Zm-2.16.35H32.91L27.07,40.41l3.22-.21h.06a.83.83,0,0,1,.8,1L29,50.79l8.32-13.32H34.16a.84.84,0,0,1-.51-.16.82.82,0,0,1-.22-1.09Z"/></g></g></svg>