<svg xmlns="http://www.w3.org/2000/svg" viewBox="0 0 71.93 52.4"><title>thunder-day</title><g id="Layer_2" data-name="Layer 2"><g id="Layer_1-2" data-name="Layer 1"><path d="M53.28,41.81H39.61a.83.83,0,0,1-.82-.83.74.74,0,0,1,.82-.77H53.28a8.37,8.37,0,0,0,6.36-2.59C61,36,61.44,33.86,61,31.15s-2.13-6.28-11.42-5.43A1.51,1.51,0,0,1,48,24.46c-1.24-7.39-7.76-12.54-15.87-12.54A16,16,0,0,0,18.24,20a1.59,1.59,0,0,1-1.8.75,11.85,11.85,0,0,0-4.59-.3A11.82,11.82,0,0,0,2.08,35.31a7.2,7.2,0,0,0,6.36,4.9h9.63a.75.75,0,0,1,.83.77.83.83,0,0,1-.83.83H8.44a8.71,8.71,0,0,1-8-6.06A13.49,13.49,0,0,1,11.63,18.81a13.44,13.44,0,0,1,5.24.34,17.48,17.48,0,0,1,15.21-8.89c8.89,0,16.06,5.67,17.48,13.8,7.92-.7,12.19,1.54,13.07,6.82.52,3.16-.08,5.86-1.73,7.81A9.72,9.72,0,0,1,53.28,41.81Z"/><path d="M21.41,23.41a.82.82,0,0,1-.69-.37c-1-1.44-4.82-2.42-7-2.7a.83.83,0,0,1,.21-1.64c.66.08,6.52.88,8.21,3.43a.84.84,0,0,1-.23,1.15A.84.84,0,0,1,21.41,23.41Z"/><path d="M43.51,28a.82.82,0,0,1-.66-.33A.84.84,0,0,1,43,26.52a11.87,11.87,0,0,1,6.6-2.46.83.83,0,1,1,0,1.65A10.48,10.48,0,0,0,44,27.85.83.83,0,0,1,43.51,28Z"/><path d="M3.88,34.14a.83.83,0,0,1-.83-.82c0-7.24,4-11.56,10.74-11.56a.83.83,0,1,1,0,1.65c-7.9,0-9.08,6.21-9.08,9.91A.83.83,0,0,1,3.88,34.14Z"/><path d="M45.8,30.31a.81.81,0,0,1-.66-.33.83.83,0,0,1,.16-1.16,8.46,8.46,0,0,1,6.8-1.67.83.83,0,0,1-.4,1.61,6.83,6.83,0,0,0-5.4,1.39A.83.83,0,0,1,45.8,30.31Z"/><path d="M59.22,27a.83.83,0,0,1-.59-1.41A8.52,8.52,0,0,0,61,17.69a8.67,8.67,0,0,0-10.34-6.47,8.57,8.57,0,0,0-5.84,4.51.84.84,0,0,1-1.12.37A.82.82,0,0,1,43.29,15a10.18,10.18,0,0,1,7-5.39,10.33,10.33,0,0,1,12.31,7.72,10.13,10.13,0,0,1-2.76,9.45A.82.82,0,0,1,59.22,27Z"/><path d="M67.8,29.72a.84.84,0,0,1-.5-.17L62.51,25.9a.82.82,0,0,1-.16-1.16.83.83,0,0,1,1.16-.16l4.79,3.65a.84.84,0,0,1,.16,1.16A.82.82,0,0,1,67.8,29.72Z"/><path d="M43.3,11.5a.86.86,0,0,1-.5-.17L38,7.68a.83.83,0,0,1,1-1.32L43.81,10A.83.83,0,0,1,44,11.17.81.81,0,0,1,43.3,11.5Z"/><path d="M51.72,7.9a.83.83,0,0,1-.83-.78L50.55.88A.83.83,0,0,1,51.33,0a.81.81,0,0,1,.87.78L52.54,7a.81.81,0,0,1-.78.87Z"/><path d="M61.51,10.48A.81.81,0,0,1,61,10.3a.83.83,0,0,1-.13-1.17l3.9-4.88a.83.83,0,0,1,1.17-.13.82.82,0,0,1,.13,1.16l-3.91,4.89A.83.83,0,0,1,61.51,10.48Z"/><path d="M64.85,18.92a.83.83,0,0,1,0-1.65l6.24-.35a.8.8,0,0,1,.87.78.81.81,0,0,1-.78.87l-6.24.35Z"/><path d="M24.5,52.4a.91.91,0,0,1-.32-.06.82.82,0,0,1-.49-.94l3-13.23-3.53.22A.8.8,0,0,1,22.4,38a.83.83,0,0,1-.06-.82L29,23.2a.82.82,0,0,1,.74-.47h7.32a.82.82,0,0,1,.51.16A.83.83,0,0,1,37.8,24L33,32.07h3.2a.77.77,0,0,1,.51.17.82.82,0,0,1,.21,1.1L25.19,52A.82.82,0,0,1,24.5,52.4Zm3.21-15.86a.78.78,0,0,1,.62.29.8.8,0,0,1,.18.71l-2.15,9.59,8.32-13.32H31.52a.84.84,0,0,1-.51-.16.82.82,0,0,1-.22-1.09l4.85-8.09H30.27L24.43,36.74l3.22-.2Z"/></g></g></svg>