<svg xmlns="http://www.w3.org/2000/svg" viewBox="0 0 71.93 50.93"><title>wind-day</title><g id="Layer_2" data-name="Layer 2"><g id="Layer_1-2" data-name="Layer 1"><path d="M53.28,41.79H47.07a.8.8,0,0,1-.83-.81.78.78,0,0,1,.83-.79h6.21a8.22,8.22,0,0,0,6.36-2.57C61,36,61.44,33.86,61,31.16s-2.13-6.29-11.42-5.44A1.51,1.51,0,0,1,48,24.46c-1.24-7.38-7.76-12.54-15.87-12.54A16,16,0,0,0,18.24,20a1.59,1.59,0,0,1-1.8.75,11.71,11.71,0,0,0-4.6-.29A11.81,11.81,0,0,0,2.08,35.31a7.13,7.13,0,0,0,6.36,4.88h5.49a.78.78,0,0,1,.83.79.8.8,0,0,1-.83.81H8.44a8.67,8.67,0,0,1-8-6A13.49,13.49,0,0,1,11.63,18.81a13.44,13.44,0,0,1,5.24.34,17.48,17.48,0,0,1,15.21-8.89c8.89,0,16.06,5.67,17.48,13.8,7.92-.7,12.19,1.54,13.07,6.82.52,3.17-.08,5.87-1.73,7.82A9.64,9.64,0,0,1,53.28,41.79Z"/><path d="M21.41,23.42a.82.82,0,0,1-.69-.37c-1-1.45-4.82-2.43-7-2.71a.82.82,0,0,1-.71-.92.84.84,0,0,1,.92-.72c.66.08,6.52.89,8.21,3.43a.83.83,0,0,1-.23,1.15A.86.86,0,0,1,21.41,23.42Z"/><path d="M43.51,28a.85.85,0,0,1-.66-.33A.84.84,0,0,1,43,26.53a11.93,11.93,0,0,1,6.6-2.47.83.83,0,0,1,.83.83.84.84,0,0,1-.83.83A10.41,10.41,0,0,0,44,27.85.84.84,0,0,1,43.51,28Z"/><path d="M3.88,34.15a.83.83,0,0,1-.83-.83c0-7.24,4-11.56,10.74-11.56a.83.83,0,1,1,0,1.66c-7.9,0-9.08,6.2-9.08,9.9A.83.83,0,0,1,3.88,34.15Z"/><path d="M45.8,30.32a.84.84,0,0,1-.5-1.5,8.55,8.55,0,0,1,6.8-1.67.83.83,0,0,1-.4,1.61,6.83,6.83,0,0,0-5.4,1.39A.84.84,0,0,1,45.8,30.32Z"/><path d="M59.22,27a.85.85,0,0,1-.59-.25.83.83,0,0,1,0-1.17A8.51,8.51,0,0,0,61,17.69a8.68,8.68,0,0,0-10.34-6.47,8.55,8.55,0,0,0-5.84,4.52.84.84,0,0,1-1.12.36A.82.82,0,0,1,43.29,15a10.21,10.21,0,0,1,7-5.39,10.33,10.33,0,0,1,12.31,7.73,10.12,10.12,0,0,1-2.76,9.44A.83.83,0,0,1,59.22,27Z"/><path d="M67.8,29.72a.78.78,0,0,1-.5-.17L62.51,25.9a.82.82,0,0,1-.16-1.16.83.83,0,0,1,1.16-.15l4.79,3.65a.82.82,0,0,1-.5,1.48Z"/><path d="M43.3,11.5a.8.8,0,0,1-.5-.17L38,7.68a.83.83,0,0,1-.15-1.16A.84.84,0,0,1,39,6.36L43.81,10a.83.83,0,0,1-.51,1.48Z"/><path d="M51.72,7.91a.84.84,0,0,1-.83-.79L50.55.88A.81.81,0,0,1,51.33,0a.8.8,0,0,1,.87.78L52.55,7a.83.83,0,0,1-.79.87Z"/><path d="M61.51,10.48a.82.82,0,0,1-.64-1.34l3.91-4.89a.83.83,0,1,1,1.29,1l-3.91,4.88A.83.83,0,0,1,61.51,10.48Z"/><path d="M64.85,18.92a.83.83,0,0,1,0-1.65l6.24-.35a.82.82,0,0,1,.87.79.83.83,0,0,1-.78.87l-6.24.34Z"/><path d="M39.66,41.81a.83.83,0,1,1,0-1.65,3.53,3.53,0,0,0,3.27-3.73,3.53,3.53,0,0,0-3.27-3.73c-1.68,0-2.55,1.88-2.78,2.46a.83.83,0,1,1-1.54-.6c.86-2.2,2.48-3.52,4.32-3.52a5.18,5.18,0,0,1,4.93,5.39A5.17,5.17,0,0,1,39.66,41.81Z"/><path d="M31.07,50.93a4.52,4.52,0,0,1-4-2.34.83.83,0,0,1,.35-1.12.84.84,0,0,1,1.12.35,2.86,2.86,0,0,0,2.54,1.45,2.5,2.5,0,1,0,0-5,.83.83,0,0,1,0-1.66,4.16,4.16,0,1,1,0,8.29Z"/><path d="M30.63,44.32h-7a.83.83,0,0,1-.84-.78.81.81,0,0,1,.8-.82H30.6a.82.82,0,0,1,.83.78A.79.79,0,0,1,30.63,44.32Z"/><path d="M29.07,39.33a.83.83,0,0,1,0-1.66,2.3,2.3,0,0,0,2.2-2.39,2.75,2.75,0,0,0-2.49-2.58,2.75,2.75,0,0,0-2.21,1.56.82.82,0,0,1-1.09.42.83.83,0,0,1-.42-1.1A4.38,4.38,0,0,1,28.78,31a4.36,4.36,0,0,1,4.15,4.24A4,4,0,0,1,29.07,39.33Z"/><path d="M28.53,39.25H21.88a.83.83,0,0,1-.84-.78.81.81,0,0,1,.8-.82h6.65a.83.83,0,0,1,.84.78A.8.8,0,0,1,28.53,39.25Z"/><path d="M39.66,41.79H18.91a.83.83,0,0,1-.83-.71.81.81,0,0,1,.82-.89H39.65a.82.82,0,0,1,.83.7A.81.81,0,0,1,39.66,41.79Z"/></g></g></svg>