<svg xmlns="http://www.w3.org/2000/svg" viewBox="0 0 50.13 59.6"><style>.cls-1{fill:#fff;}</style><title>interaction</title><g id="Layer_2" class="cls-1" data-name="Layer 2"><g id="Layer_1-2" data-name="Layer 1"><path d="M18.5,33.92H5A.95.95,0,0,1,5,32H18.5a.95.95,0,0,1,0,1.89Z"/><path d="M38.36,11.37a5.69,5.69,0,1,1,5.69-5.69A5.69,5.69,0,0,1,38.36,11.37Zm0-9.48a3.8,3.8,0,1,0,3.79,3.79A3.79,3.79,0,0,0,38.36,1.89Z"/><path d="M11.77,11.37a5.69,5.69,0,1,1,5.69-5.69A5.69,5.69,0,0,1,11.77,11.37Zm0-9.48a3.8,3.8,0,1,0,3.79,3.79A3.79,3.79,0,0,0,11.77,1.89Z"/><path d="M45.09,33.92H31.64a.95.95,0,1,1,0-1.89H45.09a.95.95,0,0,1,0,1.89Z"/><path d="M48.51,59.6H1.11a.95.95,0,1,1,0-1.89h47.4a.95.95,0,1,1,0,1.89Z"/><path d="M15.93,59.6a3.53,3.53,0,0,1-3.52-3.52V39.68a.64.64,0,1,0-1.28,0v16.4a3.52,3.52,0,1,1-7,0V35.44a2.91,2.91,0,0,1-1.1.21,3,3,0,0,1-3-3V18.84a6.49,6.49,0,0,1,6.48-6.48h9.17a6.16,6.16,0,0,1,5.19,2.82l7.08,10.94a3.09,3.09,0,0,1,.2,3,3,3,0,0,1-2.58,1.7,3.29,3.29,0,0,1-2.95-1.53l-3.15-5.11V56.08A3.52,3.52,0,0,1,15.93,59.6ZM11.77,37.15a2.53,2.53,0,0,1,2.53,2.53v16.4a1.63,1.63,0,1,0,3.25,0V20.86a.94.94,0,0,1,1.75-.49l4.91,8a1.34,1.34,0,0,0,1.23.63,1.09,1.09,0,0,0,1-.63,1.21,1.21,0,0,0-.08-1.18L19.25,16.21a4.28,4.28,0,0,0-3.6-2H6.48a4.6,4.6,0,0,0-4.59,4.59V32.66a1.11,1.11,0,0,0,2.21,0V19.51a.95.95,0,0,1,1.89,0V56.08a1.63,1.63,0,1,0,3.25,0V39.68A2.53,2.53,0,0,1,11.77,37.15Z"/><path d="M42.52,59.6A3.53,3.53,0,0,1,39,56.08V39.68a.64.64,0,0,0-.64-.64.64.64,0,0,0-.64.64v16.4a3.52,3.52,0,1,1-7,0V24.21l-2.42,3.92a.94.94,0,0,1-1,.43,1,1,0,0,1-.72-.85,1.25,1.25,0,0,0-.19-.56L24.27,24a1,1,0,0,1,0-1l5-7.76a6.19,6.19,0,0,1,5.19-2.82h9.17a6.48,6.48,0,0,1,6.48,6.48V32.66a3,3,0,0,1-3,3A3,3,0,0,1,46,35.44V56.08A3.52,3.52,0,0,1,42.52,59.6ZM38.36,37.15a2.54,2.54,0,0,1,2.54,2.53v16.4a1.62,1.62,0,1,0,3.24,0V32.66a.95.95,0,1,1,1.89,0,1.11,1.11,0,0,0,2.21,0V18.84a4.6,4.6,0,0,0-4.59-4.59H34.48a4.3,4.3,0,0,0-3.6,2l-4.69,7.24,1.41,2.17,3.23-5.25a.94.94,0,0,1,1.75.49V56.08a1.63,1.63,0,1,0,3.25,0V39.68A2.54,2.54,0,0,1,38.36,37.15Z"/><path d="M45.09,33.6a1,1,0,0,1-1-.94V19.51a.95.95,0,0,1,1.89,0V32.66A.94.94,0,0,1,45.09,33.6Z"/></g></g></svg>