<svg xmlns="http://www.w3.org/2000/svg" viewBox="0 0 56.53 61.5"><defs><style>.cls-1{fill:#fff;}</style></defs><title>mood</title><g id="Layer_2" data-name="Layer 2"><g id="Layer_1-2" data-name="Layer 1"><path class="cls-1" d="M55.31,33.4c-3.92-4.65-4.89-7.85-5-8.38A25.14,25.14,0,1,0,3.33,37.65l0,0c.75,1.3,1.58,2.64,2.41,4A61.91,61.91,0,0,1,9.3,47.78c1.78,3.93,1.88,12.71,1.88,12.8a.94.94,0,0,0,.94.92h0a.93.93,0,0,0,.92-.94c0-.38-.12-9.27-2.06-13.55a61.19,61.19,0,0,0-3.64-6.35C6.53,39.35,5.69,38,4.94,36.72a.05.05,0,0,0,0,0A23.28,23.28,0,1,1,48.41,25.14a1.37,1.37,0,0,0,0,.19c0,.15.83,3.79,5.46,9.27a2.68,2.68,0,0,1,.76,1.83c0,.12-.08.5-.79.91a42.66,42.66,0,0,1-5,2.37.94.94,0,0,0-.59,1c0,.06.72,5.56.1,8.83-.27,1.39-3.41,2.32-7.81,2.32a3.78,3.78,0,0,0-4.1,4v4.76a.93.93,0,0,0,1.86,0V55.81a2,2,0,0,1,2.24-2.09c3.32,0,9-.5,9.64-3.84a34.81,34.81,0,0,0,0-8.7A41.22,41.22,0,0,0,54.8,39a3.19,3.19,0,0,0,1.69-2.2A4.37,4.37,0,0,0,55.31,33.4Z"/><path class="cls-1" d="M40.68,42a.94.94,0,0,0,.66-.28.92.92,0,0,0,.22-.95L39.29,34a16.5,16.5,0,1,0-5.74,5.74L40.38,42A1,1,0,0,0,40.68,42Zm-7-4.23a.92.92,0,0,0-.79.1,14.65,14.65,0,1,1,4.55-4.55,1,1,0,0,0-.1.79l1.83,5.48Z"/><path class="cls-1" d="M32.24,29.54a10.32,10.32,0,0,1-14.19,0,.94.94,0,0,0-1.32,0,.93.93,0,0,0,0,1.31,12.18,12.18,0,0,0,16.78,0,.92.92,0,0,0,0-1.31A.94.94,0,0,0,32.24,29.54Z"/><path class="cls-1" d="M30.31,20.58A4.3,4.3,0,0,0,27,22.15a.92.92,0,0,0,.09,1.31.94.94,0,0,0,1.32-.1,2.43,2.43,0,0,1,3.75,0,.9.9,0,0,0,.7.33.94.94,0,0,0,.71-1.54A4.32,4.32,0,0,0,30.31,20.58Z"/><path class="cls-1" d="M18.11,23.36a2.43,2.43,0,0,1,3.75,0,.9.9,0,0,0,.7.33,1,1,0,0,0,.61-.23.93.93,0,0,0,.1-1.31,4.23,4.23,0,0,0-6.58,0,.93.93,0,0,0,1.42,1.21Z"/></g></g></svg>